<?xml version="1.0" encoding="UTF-8"?>
<svg width="17px" height="16px" viewBox="0 0 17 16" version="1.1" xmlns="http://www.w3.org/2000/svg" xmlns:xlink="http://www.w3.org/1999/xlink">
    <title>编组 89备份</title>
    <g id="页面-1" stroke="none" stroke-width="1" fill="none" fill-rule="evenodd">
        <g id="全景图-浅色" transform="translate(-491.000000, -70.000000)" fill-rule="nonzero">
            <g id="编组-169" transform="translate(481.000000, 61.000000)">
                <g id="g监测s" transform="translate(10.000000, 9.000000)">
                    <rect id="矩形" fill="#000000" opacity="0" x="1" y="0" width="16" height="16"></rect>
                    <path d="M5.37,4.01367071 C5.31335876,3.9876725 5.25585534,4.01727572 5.20333333,4.09947206 C5.25333333,4.01367077 5.31333333,3.97689878 5.37,4.01367071 L5.37,4.01367071 Z M12,2 L0.666666656,2 C0.299999984,2 0,2.3 0,2.66666667 L0,10.6666667 C0,11.0333333 0.3,11.3333333 0.666666656,11.3333333 L4.66666666,11.3333333 L4.66666666,13.3333333 L2.66666666,13.3333333 C2.48333333,13.3333333 2.33333333,13.4833333 2.33333333,13.6666667 C2.33333333,13.85 2.48333333,14 2.66666666,14 L10,14 C10.1833333,14 10.3333333,13.85 10.3333333,13.6666667 C10.3333333,13.4833333 10.1833333,13.3333333 10,13.3333333 L8,13.3333333 L8,11.3333333 L12,11.3333333 C12.3666667,11.3333333 12.6666667,11.0333333 12.6666667,10.6666667 L12.6666667,2.66666667 C12.6666667,2.3 12.3666667,2 12,2 Z M10.3333333,7 L8.86,7 L7.62333333,9.16666667 C7.56333333,9.27 7.45333333,9.33333333 7.33333333,9.33333333 L7.31333333,9.33333333 C7.18682382,9.32576049 7.07563461,9.24689373 7.02666666,9.13 L5.29,5.08 L4.29,6.83333333 C4.23,6.93666666 4.12,7 4,7 L2.33333333,7 C2.15,7 2,6.85 2,6.66666667 C2,6.48333334 2.15,6.33333334 2.33333333,6.33333333 L3.80666666,6.33333333 L5.04333333,4.16666667 C5.10534527,4.05543396 5.22634654,3.99037951 5.35333333,4 C5.48,4.00666667 5.59,4.08666667 5.64,4.20333333 L7.37666666,8.25333333 L8.37666666,6.5 C8.43666666,6.39666667 8.54666666,6.33333333 8.66666666,6.33333333 L10.3333333,6.33333333 C10.5166667,6.33333333 10.6666667,6.48333333 10.6666667,6.66666667 C10.6666667,6.85000002 10.5166667,7 10.3333333,7 Z" id="形状" fill="currentColor"></path>
                </g>
            </g>
        </g>
    </g>
</svg>