<?xml version="1.0" encoding="UTF-8"?>
<svg width="17px" height="14px" viewBox="0 0 17 14" version="1.1" xmlns="http://www.w3.org/2000/svg" xmlns:xlink="http://www.w3.org/1999/xlink">
    <title>闭眼</title>
    <g id="页面-2" stroke="none" stroke-width="1" fill="none" fill-rule="evenodd">
        <g id="登录备份-2" transform="translate(-1328.000000, -539.000000)" fill="#798695" fill-rule="nonzero">
            <g id="编组备份-2" transform="translate(1039.000000, 525.000000)">
                <g id="闭眼" transform="translate(289.000000, 14.000000)">
                    <path d="M16.6143155,6.47033333 C16.862025,6.78000199 16.862025,7.21999801 16.6143155,7.52966667 C15.5139155,8.92546667 12.2509821,12.6 8.40004881,12.6 C7.11154715,12.6 5.88887418,12.1886228 4.79101047,11.5888724 L7.13964762,9.23957739 C7.80455209,9.63268175 8.62956099,9.69900689 9.36418219,9.38746667 C10.3059155,8.988 10.9200488,8.04533333 10.9200488,7 C10.9200488,6.55282539 10.8093699,6.13221014 10.6145775,5.76539395 L13.2107798,3.16952482 C14.8069527,4.31189788 16.0229323,5.72019467 16.6143155,6.47033333 Z M8.40004881,1.4 C9.68873267,1.4 10.9115692,1.81149347 12.0095528,2.411382 L9.65946809,4.76079193 C9.28907215,4.54123595 8.85911096,4.4156 8.40051553,4.4156 L8.40004881,4.4156 C7.38084881,4.4156 6.46198215,5.04513333 6.07231553,6.01113333 C5.77637578,6.74390271 5.82898349,7.56018387 6.1861408,8.23428424 L3.58978295,10.8308081 C1.99338117,9.68837571 0.777222754,8.27987818 0.185782164,7.52966667 C-0.0619273881,7.21999801 -0.0619273881,6.78000199 0.185782164,6.47033333 C1.28618217,5.07453333 4.5491155,1.4 8.40004881,1.4 Z" id="形状结合"></path>
                    <path d="M1.11264276,13.888 C0.935324535,13.888 0.758216153,13.8204301 0.622866739,13.6850806 C0.352377753,13.4145917 0.352377753,12.9762274 0.622866739,12.7055286 L13.0135286,0.314866739 C13.2840176,0.0443777535 13.7223818,0.0443777535 13.9930806,0.314866739 C14.2635696,0.585355727 14.2635696,1.02371996 13.9930806,1.29441879 L1.60241879,13.6850806 C1.47260545,13.8151077 1.29637772,13.888 1.11264276,13.888 L1.11264276,13.888 Z" id="路径"></path>
                </g>
            </g>
        </g>
    </g>
</svg>