<?xml version="1.0" encoding="UTF-8"?>
<svg width="17px" height="16px" viewBox="0 0 17 16" version="1.1" xmlns="http://www.w3.org/2000/svg" xmlns:xlink="http://www.w3.org/1999/xlink">
    <title>编组 89备份 2</title>
    <g id="页面-1" stroke="none" stroke-width="1" fill="none" fill-rule="evenodd">
        <g id="全景图-浅色" transform="translate(-771.000000, -70.000000)" fill-rule="nonzero">
            <g id="编组-169" transform="translate(481.000000, 61.000000)">
                <g id="编组-166" transform="translate(284.000000, 0.000000)">
                    <g id="气体" transform="translate(6.000000, 9.000000)">
                        <rect id="矩形" fill="currentColor" opacity="0" x="0" y="0" width="16" height="16"></rect>
                        <path d="M6.4221875,7.4496875 C7.761875,7.4496875 8.844375,8.53203125 8.844375,9.871875 C8.844375,11.2117188 7.76203125,12.2940625 6.4221875,12.2940625 C5.08234375,12.2940625 4,11.2117188 4,9.871875 C4,8.53203125 5.08234375,7.4496875 6.4221875,7.4496875 M12.1746875,11.0829688 C13.0107813,11.0829688 13.6884375,11.7607813 13.6884375,12.5967188 C13.6884375,13.4326563 13.010625,14.1104688 12.1746875,14.1104688 C11.33875,14.1104688 10.6609375,13.4326563 10.6609375,12.5967188 C10.6609375,11.7607813 11.3385938,11.0829688 12.1746875,11.0829688 M12.4775,2 C14.4840625,2 16.110625,3.6265625 16.110625,5.633125 C16.110625,7.63890625 14.4832813,9.26625 12.4775,9.26625 C10.4709375,9.26625 8.844375,7.6396875 8.844375,5.633125 C8.84421875,3.62734375 10.4715625,2 12.4775,2 Z" id="形状" fill="currentColor"></path>
                    </g>
                </g>
            </g>
        </g>
    </g>
</svg>