<?xml version="1.0" encoding="UTF-8"?>
<svg width="24px" height="24px" viewBox="0 0 24 24" version="1.1" xmlns="http://www.w3.org/2000/svg" xmlns:xlink="http://www.w3.org/1999/xlink">
    <title>编组备份 11</title>
    <g id="页面-1" stroke="none" stroke-width="1" fill="none" fill-rule="evenodd">
        <g id="全景图-浅色" transform="translate(-1100.000000, -856.000000)">
            <g id="编组-163" transform="translate(412.000000, 856.000000)">
                <g id="编组备份-11" transform="translate(688.000000, 0.000000)">
                    <rect id="矩形" fill="#FFFFFF" x="0" y="0" width="24" height="24" rx="2"></rect>
                    <path d="M8.26483516,3.70879121 L4.53296703,3.70879121 C4.07778729,3.70879121 3.70879121,4.07778729 3.70879121,4.53296703 L3.70879121,8.08434066 C3.70879121,8.5395204 4.07778729,8.90851648 4.53296703,8.90851648 C4.98814677,8.90851648 5.35714286,8.5395204 5.35714286,8.08434066 L5.35714286,5.35714286 L8.26483516,5.35714286 C8.7200149,5.35714286 9.08901099,4.98814677 9.08901099,4.53296703 C9.08901099,4.07778729 8.7200149,3.70879121 8.26483516,3.70879121 Z M18.9782967,3.70879121 L15.2472527,3.70879121 C14.792073,3.70879121 14.4230769,4.07778729 14.4230769,4.53296703 C14.4230769,4.98814677 14.792073,5.35714286 15.2472527,5.35714286 L18.1541209,5.35714286 L18.1541209,8.08434066 C18.1541209,8.5395204 18.523117,8.90851648 18.9782967,8.90851648 C19.4334764,8.90851648 19.8024725,8.5395204 19.8024725,8.08434066 L19.8024725,4.53296703 C19.8024725,4.07778729 19.4334764,3.70879121 18.9782967,3.70879121 Z M8.26483516,18.7994505 L5.35714286,18.7994505 L5.35714286,16.0714286 C5.35714286,15.6162488 4.98814677,15.2472527 4.53296703,15.2472527 C4.07778729,15.2472527 3.70879121,15.6162488 3.70879121,16.0714286 L3.70879121,19.6236264 C3.70879121,20.0788061 4.07778729,20.4478022 4.53296703,20.4478022 L8.26483516,20.4478022 C8.7200149,20.4478022 9.08901099,20.0788061 9.08901099,19.6236264 C9.08901099,19.1684466 8.7200149,18.7994505 8.26483516,18.7994505 L8.26483516,18.7994505 Z M18.9782967,15.2472527 C18.523117,15.2472527 18.1541209,15.6162488 18.1541209,16.0714286 L18.1541209,18.7994505 L15.2472527,18.7994505 C14.792073,18.7994505 14.4230769,19.1684466 14.4230769,19.6236264 C14.4230769,20.0788061 14.792073,20.4478022 15.2472527,20.4478022 L18.9782967,20.4478022 C19.4334764,20.4478022 19.8024725,20.0788061 19.8024725,19.6236264 L19.8024725,16.0714286 C19.8024725,15.6162488 19.4334764,15.2472527 18.9782967,15.2472527 Z" id="形状" fill="#229DFF" fill-rule="nonzero"></path>
                    <path d="M22.2527473,0 L1.64835165,0 C0.739285714,0 0,0.739285714 0,1.64835165 L0,22.2527473 C0,23.1618132 0.739285714,23.9010989 1.64835165,23.9010989 L22.2527473,23.9010989 C23.1618132,23.9010989 23.9010989,23.1618132 23.9010989,22.2527473 L23.9010989,1.64835165 C23.9010989,0.739285714 23.1618132,0 22.2527473,0 Z M1.64835165,22.2527473 L1.64835165,1.64835165 L22.2527473,1.64835165 L22.2543956,22.2527473 L1.64835165,22.2527473 Z" id="形状" fill="#229DFF" fill-rule="nonzero"></path>
                </g>
            </g>
        </g>
    </g>
</svg>