<?xml version="1.0" encoding="UTF-8"?>
<svg width="21px" height="16px" viewBox="0 0 21 16" version="1.1" xmlns="http://www.w3.org/2000/svg" xmlns:xlink="http://www.w3.org/1999/xlink">
    <title>编组 89备份 3</title>
    <g id="页面-1" stroke="none" stroke-width="1" fill="none" fill-rule="evenodd">
        <g id="全景图-浅色" transform="translate(-632.000000, -68.000000)" fill-rule="nonzero">
            <g id="编组-169" transform="translate(481.000000, 61.000000)">
                <g id="编组-167" transform="translate(142.000000, 0.000000)">
                    <g id="环境监测" transform="translate(9.000000, 7.000000)">
                        <rect id="矩形" fill="#000000" opacity="0" x="5" y="0" width="16" height="16"></rect>
                        <path d="M9.10362792e-06,11.3956981 C0.00161752603,12.4722606 0.165680026,13.5035106 0.464117526,14.4535106 C0.556305026,14.7488231 0.789117526,14.9425731 1.04849253,14.9425731 L13.07818,14.9425731 C13.337555,14.9425731 13.5703675,14.7472606 13.662555,14.4519481 C13.9609925,13.4988231 14.125055,12.4644481 14.125055,11.3831981 C14.125055,6.63007306 10.9703675,3.99225626 7.06568003,4.00001708 C3.15943003,4.00788126 -0.00619497397,6.63944806 9.10362792e-06,11.3956981 Z M2.61411753,12.3988231 C2.64224253,12.7628856 2.35630503,13.0738231 1.99068003,13.0738231 L1.91255503,13.0738231 C1.58443003,13.0738231 1.31255503,12.8191356 1.28911753,12.4925731 C1.27818003,12.3488231 1.27349253,12.2050731 1.27349253,12.0581981 C1.27349253,8.87694806 3.86255503,6.27851056 7.04380503,6.26909581 C7.89536753,6.26601056 8.70474253,6.44726056 9.43286753,6.77538556 C9.84693003,6.96132306 9.92974253,7.51444806 9.58911753,7.81444806 L9.52349253,7.87226056 C9.34068003,8.03319806 9.08130503,8.07226056 8.85943003,7.97538556 C8.27505503,7.71757306 7.62505503,7.58163556 6.94068003,7.60038556 C4.63755503,7.66288556 2.66880503,9.62694806 2.60318003,11.9300731 C2.59849253,12.0863231 2.60161753,12.2425731 2.61411753,12.3988231 Z M8.56255503,11.5550731 C8.59224253,11.6738231 8.60786753,11.7972606 8.60943003,11.9238231 C8.61880503,12.8019481 7.90630503,13.5269481 7.02818003,13.5347606 C6.13755503,13.5425731 5.41411753,12.8191356 5.42193003,11.9285106 C5.42818003,11.0566356 6.14693003,10.3456981 7.01880503,10.3472606 C7.17974253,10.3472606 7.33599253,10.3722606 7.48130503,10.4175731 C7.63911753,10.4660106 7.81255503,10.4300731 7.93286753,10.3175731 L9.36099253,9.08163556 C9.53130503,8.92382306 9.79693003,8.92851056 9.96255503,9.09257306 C10.1297425,9.25976056 10.1328675,9.53163556 9.96880503,9.70194806 L8.67661753,11.1113231 C8.56568003,11.2285106 8.52349253,11.3972606 8.56255503,11.5550731 L8.56255503,11.5550731 Z M12.8359925,12.4988231 C12.8109925,12.8238231 12.5391175,13.0722606 12.212555,13.0722606 L12.13443,13.0722606 C11.7703675,13.0722606 11.48443,12.7613231 11.5109925,12.3972606 C11.518805,12.2847606 11.5234925,12.1706981 11.5234925,12.0566356 C11.5234925,11.3300731 11.350055,10.6441356 11.0422425,10.0378856 C10.9266175,9.80819806 10.9641175,9.53163556 11.1359925,9.34101056 L11.1922425,9.27851056 C11.4828675,8.95351056 12.0109925,9.01913556 12.2109925,9.40663556 C12.6203675,10.2003856 12.8516175,11.1019481 12.8516175,12.0566356 C12.8516175,12.2050731 12.84693,12.3535106 12.8359925,12.4988231 L12.8359925,12.4988231 Z" id="形状" fill="currentColor"></path>
                    </g>
                </g>
            </g>
        </g>
    </g>
</svg>