<svg width="16" height="16" xmlns="http://www.w3.org/2000/svg"><g fill="none" fill-rule="evenodd"><path d="M0 16h16V0H0z"/><path d="M2 14h12V2H2z"/><path d="M13.5 4.5a.5.5 0 0 0 .09-.992L13.5 3.5h-11a.5.5 0 0 0-.09.992l.09.008h11zm-1.777 5.447L11.8 9.9l2-1.5a.515.515 0 0 0 .062-.056L13.8 8.4a.506.506 0 0 0 .13-.145.5.5 0 0 0-.058-.59l-.011-.011a.503.503 0 0 0-.052-.047L13.8 7.6l-2-1.5a.5.5 0 0 0-.667.74l.067.06.799.6H2.5a.5.5 0 0 0-.09.992l.09.008h9.499l-.799.6a.5.5 0 0 0-.147.623l.047.077a.5.5 0 0 0 .623.147zM13.5 12.5a.5.5 0 0 0 .09-.992l-.09-.008h-11a.5.5 0 0 0-.09.992l.09.008h11z" fill="#6D8DB5" fill-rule="nonzero"/></g></svg>