<?xml version="1.0" encoding="UTF-8"?>
<svg width="12px" height="14px" viewBox="0 0 12 14" version="1.1" xmlns="http://www.w3.org/2000/svg" xmlns:xlink="http://www.w3.org/1999/xlink">
    <title>密码</title>
    <g id="页面-2" stroke="none" stroke-width="1" fill="none" fill-rule="evenodd">
        <g id="登录" transform="translate(-1053.000000, -477.000000)" fill="#798695" fill-rule="nonzero">
            <g id="编组-2" transform="translate(1039.000000, 463.000000)">
                <g id="密码" transform="translate(14.000000, 14.000000)">
                    <path d="M9.95967001,4.83826486 L9.67855114,4.83826486 L9.67855114,3.75295018 C9.67855114,1.6879152 7.99883086,0.0081949369 5.93449519,0.0081949369 C3.87015953,0.0081949369 2.18973995,1.6879152 2.18973995,3.75295018 L2.18973995,4.83826486 L1.90932037,4.83826486 C0.858028248,4.83980628 0.00627997778,5.69186734 0.0051245643,6.74315996 L0.0051245643,12.0907124 C0.0051245643,13.1396635 0.859670012,13.9942089 1.90932037,13.9942089 L9.95967001,13.9942089 C11.0106895,13.9926684 11.8623253,13.1410326 11.8638658,12.0900131 L11.8638658,6.74246067 C11.8627096,5.69128165 11.010849,4.83942106 9.95967001,4.83826486 L9.95967001,4.83826486 Z M3.238691,3.75295018 C3.238691,2.26623688 4.44778191,1.05714597 5.93449519,1.05714597 C7.42120847,1.05714597 8.62960009,2.26623688 8.62960009,3.75295018 L8.62960009,4.83826486 L3.238691,4.83826486 L3.238691,3.75295018 Z M10.8149148,12.0900131 C10.8149148,12.5613418 10.4309987,12.9452579 9.95967001,12.9452579 L1.90932037,12.9452579 C1.43730106,12.9444879 1.05484563,12.5620324 1.05407562,12.0900131 L1.05407562,6.74246067 C1.05407562,6.27043269 1.43799171,5.8865166 1.90932037,5.8865166 L9.95967001,5.8865166 C10.4309987,5.8865166 10.8149148,6.27043269 10.8149148,6.74246067 L10.8149148,12.0900131 L10.8149148,12.0900131 Z M6.81141827,8.85574737 C6.81141827,9.11099213 6.69813155,9.33616695 6.52400568,9.49630682 L6.52400568,10.236167 C6.52400568,10.5617446 6.26007284,10.8256774 5.93449519,10.8256774 C5.60891754,10.8256774 5.34498471,10.5617446 5.34498471,10.236167 L5.34498471,9.49630682 C5.16294304,9.33301237 5.0585249,9.10029458 5.05757212,8.85574737 C5.05757212,8.54245292 5.2247127,8.25295691 5.49603365,8.09630969 C5.76735459,7.93966246 6.10163579,7.93966246 6.37295674,8.09630969 C6.64427769,8.25295691 6.81141827,8.54245292 6.81141827,8.85574737 L6.81141827,8.85574737 Z" id="形状"></path>
                </g>
            </g>
        </g>
    </g>
</svg>