<?xml version="1.0" encoding="UTF-8"?>
<svg width="12px" height="11px" viewBox="0 0 12 11" version="1.1" xmlns="http://www.w3.org/2000/svg" xmlns:xlink="http://www.w3.org/1999/xlink">
    <title>短信</title>
    <g id="页面-2" stroke="none" stroke-width="1" fill="none" fill-rule="evenodd">
        <g id="登录备份" transform="translate(-1053.000000, -479.000000)" fill="#798695" fill-rule="nonzero">
            <g id="编组备份-2" transform="translate(1039.000000, 463.000000)">
                <g id="短信" transform="translate(14.000000, 16.000000)">
                    <path d="M1.85990338,0.996376812 L5.53743961,5.33061594 C5.70652174,5.5298913 6.00241546,5.5298913 6.17149758,5.33061594 L9.97584541,0.996376812 L1.85990338,0.996376812 Z M10.9480676,1.29528986 L6.72101449,6.07789855 C6.21376812,6.6259058 5.41062802,6.6259058 4.90338164,6.07789855 L0.887681159,1.24547101 C0.845410628,1.3451087 0.845410628,1.39492754 0.845410628,1.49456522 L0.845410628,9.46557971 C0.845410628,9.76449275 1.01449275,9.96376812 1.26811594,9.96376812 L10.5676329,9.96376812 C10.821256,9.96376812 10.9903382,9.76449275 10.9903382,9.46557971 L10.9903382,1.49456522 C10.9903382,1.44474638 10.9903382,1.3451087 10.9480676,1.29528986 Z M1.26811594,0 L10.5676329,0 C11.2862319,0 11.8357488,0.647644928 11.8357488,1.49456522 L11.8357488,9.46557971 C11.8357488,10.3125 11.2862319,10.9601449 10.5676329,10.9601449 L1.26811594,10.9601449 C0.549516908,10.9601449 0,10.3125 0,9.46557971 L0,1.49456522 C0,0.647644928 0.549516908,0 1.26811594,0 Z" id="形状"></path>
                </g>
            </g>
        </g>
    </g>
</svg>