<?xml version="1.0" encoding="UTF-8"?>
<svg width="18px" height="12px" viewBox="0 0 18 12" version="1.1" xmlns="http://www.w3.org/2000/svg" xmlns:xlink="http://www.w3.org/1999/xlink">
    <title>睁眼</title>
    <g id="页面-2" stroke="none" stroke-width="1" fill="none" fill-rule="evenodd">
        <g id="登录" transform="translate(-1327.000000, -478.000000)" fill="#798695" fill-rule="nonzero">
            <g id="编组-2" transform="translate(1039.000000, 463.000000)">
                <g id="睁眼" transform="translate(288.000000, 15.000000)">
                    <path d="M9.00005878,0 C13.1260588,0 16.6220588,3.937 17.8010588,5.4325 C18.0664619,5.76428785 18.0664619,6.23571215 17.8010588,6.5675 C16.6220588,8.063 13.1260588,12 9.00005878,12 C4.87405878,12 1.37805878,8.063 0.199058782,6.5675 C-0.0663443075,6.23571215 -0.0663443075,5.76428785 0.199058782,5.4325 C1.37805878,3.937 4.87405878,0 9.00005878,0 Z M9.00005878,3.231 C7.90805878,3.231 6.92355878,3.90549999 6.50605878,4.94049999 C6.08805878,5.97549999 6.31905878,7.16599999 7.09105878,7.95799999 C7.85289398,8.74786694 9.02275608,8.98645205 10.0330588,8.55799999 C11.0420588,8.12999999 11.7000588,7.12 11.7000588,5.99999999 C11.7000588,4.4705 10.4915588,3.231 9.00055878,3.231 L9.00005878,3.231 Z" id="形状"></path>
                </g>
            </g>
        </g>
    </g>
</svg>