<?xml version="1.0" encoding="UTF-8"?>
<svg width="11px" height="14px" viewBox="0 0 11 14" version="1.1" xmlns="http://www.w3.org/2000/svg" xmlns:xlink="http://www.w3.org/1999/xlink">
    <title>手机号</title>
    <g id="页面-2" stroke="none" stroke-width="1" fill="none" fill-rule="evenodd">
        <g id="登录" transform="translate(-1053.000000, -415.000000)" fill="#798695" fill-rule="nonzero">
            <g id="编组备份-2" transform="translate(1039.000000, 401.000000)">
                <g id="手机号" transform="translate(14.000000, 14.000000)">
                    <path d="M9.364375,14 L1.604375,14 C0.724375,14 0.004375,13.37 0.004375,12.6 L0.004375,1.4 C0.004375,0.63 0.724375,0 1.604375,0 L9.324375,0 C10.204375,0 10.924375,0.63 10.924375,1.4 L10.924375,12.6 C10.964375,13.37 10.244375,14 9.364375,14 Z M1.604375,0.7 C1.164375,0.7 0.804375,1.015 0.804375,1.4 L0.804375,12.6 C0.804375,12.985 1.164375,13.3 1.604375,13.3 L9.324375,13.3 C9.764375,13.3 10.124375,12.985 10.124375,12.6 L10.124375,1.4 C10.124375,1.015 9.764375,0.7 9.324375,0.7 L1.604375,0.7 Z" id="形状"></path>
                    <path d="M6.764375,2.205 L4.244375,2.205 C4.004375,2.205 3.844375,2.065 3.844375,1.855 C3.844375,1.645 4.004375,1.505 4.244375,1.505 L6.764375,1.505 C7.004375,1.505 7.164375,1.645 7.164375,1.855 C7.164375,2.065 6.964375,2.205 6.764375,2.205 Z M0.404375,10.43 L10.524375,10.43 L10.524375,11.13 L0.404375,11.13 L0.404375,10.43 Z" id="形状"></path>
                    <path d="M4.804375,12.145 C4.804375,12.4736094 5.10882137,12.74 5.484375,12.74 C5.85992863,12.74 6.164375,12.4736094 6.164375,12.145 C6.164375,11.8163906 5.85992863,11.55 5.484375,11.55 C5.10882137,11.55 4.804375,11.8163906 4.804375,12.145 Z" id="路径"></path>
                </g>
            </g>
        </g>
    </g>
</svg>