<?xml version="1.0" encoding="UTF-8"?>
<svg width="12px" height="12px" viewBox="0 0 12 12" version="1.1" xmlns="http://www.w3.org/2000/svg" xmlns:xlink="http://www.w3.org/1999/xlink">
    <title>编组 89备份 4</title>
    <g id="页面-1" stroke="none" stroke-width="1" fill="none" fill-rule="evenodd">
        <g id="全景图-浅色" transform="translate(-917.000000, -72.000000)" fill="currentColor" fill-rule="nonzero">
            <g id="编组-169" transform="translate(481.000000, 61.000000)">
                <g id="编组-168" transform="translate(426.000000, 0.000000)">
                    <g id="视频" transform="translate(10.000000, 11.000000)">
                        <path d="M5.2434747,2.08694695 L3.46957101,0 L1.46087265,0 L3.23478856,2.08694695 L5.2434747,2.08694695 Z M10.4608665,2.08694695 L8.68695062,0 L6.67826448,0 L8.45216817,2.08694695 L10.4608665,2.08694695 Z M7.85217673,2.08694695 L6.07826082,0 L4.06956245,0 L5.84347837,2.08694695 L7.85217673,2.08694695 Z M11.2173918,0 L9.28695429,0 L11.0608702,2.08694695 L12,2.08694695 L12,0.782608164 C12,0.339126128 11.6608616,0 11.2173918,0 Z M0.86086898,0 L0.782608164,0 C0.339138357,0 0,0.339126128 0,0.782608164 L0,2.08694695 L2.63478489,2.08694695 L0.86086898,0 L0.86086898,0 Z M0,10.6956368 C0,11.1391188 0.339138357,11.4782449 0.782608164,11.4782449 L11.2173918,11.4782449 C11.6608616,11.4782449 12,11.1391188 12,10.6956368 L12,2.6086898 L0,2.6086898 L0,10.6956368 Z M4.17391836,4.9565143 C4.17391836,4.51303226 4.53912735,4.3043449 4.95652652,4.3043449 C5.08695307,4.3043449 5.2434747,4.33042776 5.37391347,4.40868858 L8.34782449,6.13042654 C8.86956734,6.41738694 8.86956734,7.14781716 8.34782449,7.43477756 L5.37391347,9.15651552 C5.2434747,9.23477634 5.11304816,9.2608592 4.95652652,9.2608592 C4.53912735,9.2608592 4.17391836,9.05215961 4.17391836,8.6086898 L4.17391836,4.9565143 Z" id="形状"></path>
                    </g>
                </g>
            </g>
        </g>
    </g>
</svg>